<?xml version="1.0" standalone="no"?>
<!DOCTYPE svg PUBLIC "-//W3C//DTD SVG 20010904//EN"
 "http://www.w3.org/TR/2001/REC-SVG-20010904/DTD/svg10.dtd">
<svg version="1.0" xmlns="http://www.w3.org/2000/svg"
 width="160.000000pt" height="160.000000pt" viewBox="0 0 160.000000 160.000000"
 preserveAspectRatio="xMidYMid meet">
<metadata>
Created by potrace 1.14, written by Peter Selinger 2001-2017
</metadata>
<g transform="translate(0.000000,160.000000) scale(0.100000,-0.100000)"
fill="#000000" stroke="none">
<path d="M695 1520 c-13 -14 -22 -17 -29 -10 -14 14 -47 13 -43 -2 1 -9 -11
-12 -42 -10 -41 4 -43 3 -38 -18 5 -20 3 -21 -28 -16 -30 6 -36 3 -51 -24 -13
-21 -24 -28 -36 -24 -10 3 -23 2 -30 -3 -7 -4 -22 -8 -33 -8 -16 0 -20 -7 -21
-34 0 -36 -26 -64 -50 -54 -10 3 -14 -2 -14 -19 0 -14 -11 -35 -26 -48 -17
-17 -23 -31 -20 -46 4 -14 1 -24 -8 -27 -8 -3 -24 -27 -37 -54 -27 -56 -50
-81 -102 -112 -66 -40 -70 -55 -51 -181 3 -19 8 -53 11 -75 13 -92 54 -230 94
-312 101 -207 261 -338 489 -400 78 -22 276 -21 360 1 153 40 314 147 400 265
90 123 130 217 166 386 24 114 35 244 23 267 -12 22 -73 69 -93 72 -9 1 -29
12 -46 24 -26 20 -28 25 -20 48 7 19 7 31 -1 40 -6 8 -9 21 -5 29 4 10 -3 19
-19 27 -14 6 -26 15 -26 20 -3 19 -5 24 -13 36 -4 7 -17 12 -29 10 -17 -2 -21
3 -25 32 -2 18 -10 47 -18 62 -8 15 -14 31 -13 34 2 18 -27 21 -45 6 -14 -13
-20 -14 -23 -4 -3 6 -11 12 -19 12 -8 0 -14 7 -14 16 0 12 -6 15 -22 11 -13
-4 -31 1 -46 14 -14 10 -36 19 -49 19 -13 0 -32 4 -42 10 -10 5 -33 11 -52 13
-19 3 -51 12 -71 21 -36 15 -83 14 -119 -5 -12 -6 -18 -3 -22 11 -7 26 -29 25
-52 0z"/>
</g>
</svg>
